<svg width="48" height="48" viewBox="0 0 48 48" fill="none" xmlns="http://www.w3.org/2000/svg">
<rect x="3.59998" y="25.2" width="4.8" height="18" fill="#31475E"/>
<rect width="4.8" height="13.2" transform="matrix(1 0 0 -1 9.59998 36)" fill="#31475E"/>
<rect width="4.8" height="9.6" transform="matrix(1 0 0 -1 15.6 25.2)" fill="#3EB983"/>
<rect width="4.8" height="8.4" transform="matrix(1 0 0 -1 21.6 26.4)" fill="#31475E"/>
<rect width="4.8" height="22.8" transform="matrix(1 0 0 -1 27.6 26.4)" fill="#3EB983"/>
<rect x="0.5" y="0.5" width="47" height="47" stroke="white"/>
<path d="M27.5344 32.2531C27.899 32.2531 28.2271 32.3156 28.5188 32.4406C28.8209 32.5552 29.0969 32.6854 29.3469 32.8312C29.6073 32.9771 29.8521 33.1125 30.0813 33.2375C30.3105 33.3521 30.5448 33.4094 30.7844 33.4094C30.9719 33.3989 31.1855 33.3729 31.425 33.3312C31.6334 33.2896 31.873 33.2271 32.1438 33.1437C32.425 33.05 32.7375 32.9146 33.0813 32.7375C32.7375 33.0708 32.4563 33.3521 32.2375 33.5812C32.0292 33.8 31.8678 33.9823 31.7532 34.1281C31.6178 34.2948 31.5188 34.425 31.4563 34.5187C31.3938 34.6333 31.3 34.8052 31.175 35.0344C31.0605 35.2427 30.9042 35.5239 30.7063 35.8781C30.5084 36.2219 30.2584 36.675 29.9563 37.2375C29.9563 36.5187 29.8834 35.9614 29.7375 35.5656C29.6021 35.1698 29.4511 34.8677 29.2844 34.6594C29.0865 34.4198 28.8625 34.2687 28.6125 34.2062C28.3834 34.175 28.1542 34.2167 27.925 34.3312C27.6959 34.4354 27.4667 34.5917 27.2375 34.8C27.0188 35.0083 26.8053 35.2583 26.5969 35.55C26.399 35.8312 26.2167 36.1281 26.05 36.4406C25.8938 36.7531 25.7636 37.0708 25.6594 37.3937C25.5553 37.7062 25.4875 37.9979 25.4563 38.2687C25.425 38.5083 25.4198 38.7896 25.4407 39.1125C25.4615 39.425 25.5084 39.7479 25.5813 40.0812C25.6542 40.4042 25.748 40.7219 25.8625 41.0344C25.9771 41.3469 26.1178 41.6281 26.2844 41.8781C26.4615 42.1177 26.6594 42.3156 26.8782 42.4719C27.0969 42.6177 27.3469 42.6854 27.6282 42.675C27.9407 42.6542 28.248 42.5604 28.55 42.3937C28.8105 42.2583 29.0761 42.05 29.3469 41.7687C29.6178 41.4771 29.8521 41.0656 30.05 40.5344L32.3625 40.9562C31.6959 41.7687 31.0448 42.3781 30.4094 42.7844C29.7844 43.1906 29.2219 43.4771 28.7219 43.6437C28.1386 43.8312 27.5865 43.9198 27.0657 43.9094C26.4094 43.8364 25.7948 43.6385 25.2219 43.3156C24.649 42.9927 24.1542 42.6021 23.7375 42.1437C23.3313 41.675 23.0136 41.1646 22.7844 40.6125C22.5553 40.0604 22.4563 39.5187 22.4875 38.9875C22.5084 38.6333 22.5813 38.2219 22.7063 37.7531C22.8313 37.2739 22.998 36.7844 23.2063 36.2844C23.425 35.7844 23.6855 35.2948 23.9875 34.8156C24.2896 34.3364 24.623 33.9094 24.9875 33.5344C25.3521 33.1489 25.748 32.8417 26.175 32.6125C26.6125 32.3729 27.0657 32.2531 27.5344 32.2531ZM37.0188 32.2531C37.3834 32.2531 37.7115 32.3156 38.0032 32.4406C38.3053 32.5552 38.5813 32.6854 38.8313 32.8312C39.0917 32.9771 39.3365 33.1125 39.5657 33.2375C39.7948 33.3521 40.0292 33.4094 40.2688 33.4094C40.4563 33.3989 40.6698 33.3729 40.9094 33.3312C41.1178 33.2896 41.3573 33.2271 41.6282 33.1437C41.9094 33.05 42.2219 32.9146 42.5657 32.7375C42.2219 33.0708 41.9407 33.3521 41.7219 33.5812C41.5136 33.8 41.3521 33.9823 41.2375 34.1281C41.1021 34.2948 41.0032 34.425 40.9407 34.5187C40.8782 34.6333 40.7844 34.8052 40.6594 35.0344C40.5448 35.2427 40.3886 35.5239 40.1907 35.8781C39.9928 36.2219 39.7428 36.675 39.4407 37.2375C39.4407 36.5187 39.3678 35.9614 39.2219 35.5656C39.0865 35.1698 38.9355 34.8677 38.7688 34.6594C38.5709 34.4198 38.3469 34.2687 38.0969 34.2062C37.8678 34.175 37.6386 34.2167 37.4094 34.3312C37.1803 34.4354 36.9511 34.5917 36.7219 34.8C36.5032 35.0083 36.2896 35.2583 36.0813 35.55C35.8834 35.8312 35.7011 36.1281 35.5344 36.4406C35.3782 36.7531 35.248 37.0708 35.1438 37.3937C35.0396 37.7062 34.9719 37.9979 34.9407 38.2687C34.9094 38.5083 34.9042 38.7896 34.925 39.1125C34.9459 39.425 34.9928 39.7479 35.0657 40.0812C35.1386 40.4042 35.2323 40.7219 35.3469 41.0344C35.4615 41.3469 35.6021 41.6281 35.7688 41.8781C35.9459 42.1177 36.1438 42.3156 36.3625 42.4719C36.5813 42.6177 36.8313 42.6854 37.1125 42.675C37.425 42.6542 37.7323 42.5604 38.0344 42.3937C38.2948 42.2583 38.5605 42.05 38.8313 41.7687C39.1021 41.4771 39.3365 41.0656 39.5344 40.5344L41.8469 40.9562C41.1803 41.7687 40.5292 42.3781 39.8938 42.7844C39.2688 43.1906 38.7063 43.4771 38.2063 43.6437C37.623 43.8312 37.0709 43.9198 36.55 43.9094C35.8938 43.8364 35.2792 43.6385 34.7063 43.3156C34.1334 42.9927 33.6386 42.6021 33.2219 42.1437C32.8157 41.675 32.498 41.1646 32.2688 40.6125C32.0396 40.0604 31.9407 39.5187 31.9719 38.9875C31.9928 38.6333 32.0657 38.2219 32.1907 37.7531C32.3157 37.2739 32.4823 36.7844 32.6907 36.2844C32.9094 35.7844 33.1698 35.2948 33.4719 34.8156C33.774 34.3364 34.1073 33.9094 34.4719 33.5344C34.8365 33.1489 35.2323 32.8417 35.6594 32.6125C36.0969 32.3729 36.55 32.2531 37.0188 32.2531Z" fill="white"/>
</svg>
